<svg xmlns="http://www.w3.org/2000/svg" xmlns:xlink="http://www.w3.org/1999/xlink" width="99" height="100" viewBox="0 0 99 100">
  <defs>
    <clipPath id="clip-path">
      <rect id="Rectangle_1714" data-name="Rectangle 1714" width="99" height="100" fill="#fff"/>
    </clipPath>
  </defs>
  <g id="Mask_Group_65" data-name="Mask Group 65" clip-path="url(#clip-path)">
    <path id="Path_16" data-name="Path 16" d="M334.856,565.209c23.126,5.976,45.819,21.48,58.638,40.016,5.89,8.489,12.386,22.347,14.724,31.528,2.685,10.307,3.378,30.315,1.386,40.969-3.638,19.488-13.079,36.9-27.717,51.276-15.851,15.59-36.118,25.378-59.331,28.929L312.6,759.4l-21.047,27.2c-11.606,14.984-22.866,29.1-25.032,31.441-11.173,11.347-29.8,13.945-44.693,6.15a34.077,34.077,0,0,1-15.677-16.63l-2.772-5.8-.26-72.323c-.173-50.323,0-74.748.693-80.378a95.962,95.962,0,0,1,27.284-56.04,99.062,99.062,0,0,1,28.583-20.441c9.528-4.677,12.646-5.11,17.67-2.511,6.236,3.118,6.15,2.252,6.15,51.276V664.9l2.079,4.418c6.756,14.465,27.024,17.843,38.457,6.409,14.118-14.031,4.764-35.858-16.2-37.85-8.575-.867-12.213-4.417-12.213-11.867,0-4.331,2.165-7.535,6.323-9.7,2.079-1.126,4.071-1.3,8.835-.953,20.614,1.732,36.811,14.552,42.355,33.434,1.559,5.37,1.819,15.937.433,21.74-3.551,15.331-17.409,29.189-33.347,33.26-6.756,1.732-19.228,1.819-25.811.087a47.924,47.924,0,0,1-32.74-29.449c-1.819-5.023-1.992-6.669-2.425-40.275l-.433-35.079-8.748,8.661c-10.221,10.047-15.331,18.189-19.662,30.748l-2.772,8.228-.26,74.922c-.26,69.638-.173,75.095,1.213,77.78,3.2,6.063,11.693,8.4,17.756,4.85,1.819-1.039,11.866-13.252,27.111-33.087,13.425-17.237,25.291-31.961,26.417-32.827,1.473-.953,4.937-1.645,11.606-2.165,16.37-1.126,31.354-6.236,43.307-14.9,7.016-4.937,17.583-16.11,21.567-22.693,13.079-21.481,14.378-47.725,3.378-69.638-4.417-8.834-8.835-14.638-16.63-22.087-13.772-13.079-30.055-20.354-50.41-22.52-5.976-.693-9.614-3.378-11.087-8.142a11.007,11.007,0,0,1,3.811-11.866c2.685-2.252,2.945-2.252,11.866-1.819A90.693,90.693,0,0,1,334.856,565.209Z" transform="matrix(0.407, 0.914, -0.914, 0.407, 477.284, -552.691)" fill="#fc7941"/>
  </g>
</svg>
