<svg xmlns="http://www.w3.org/2000/svg" width="123.256" height="40.807" viewBox="0 0 123.256 40.807">
  <g id="Group_5318" data-name="Group 5318" transform="translate(-126.048 -37.784)">
    <g id="Group_5317" data-name="Group 5317">
      <g id="Group_5316" data-name="Group 5316">
        <g id="Group_5306" data-name="Group 5306" transform="translate(-77.005 -524.516)">
          <path id="Path_1" data-name="Path 1" d="M223.245,562.745a16.363,16.363,0,0,1,8.983,6.13,17.707,17.707,0,0,1,2.256,4.83,18.444,18.444,0,0,1,.212,6.276,14.677,14.677,0,0,1-4.246,7.855,16.239,16.239,0,0,1-9.09,4.432l-1.526.226-3.224,4.167c-1.778,2.3-3.5,4.459-3.835,4.817a5.9,5.9,0,0,1-6.847.942,5.221,5.221,0,0,1-2.4-2.548l-.425-.889-.04-11.08c-.027-7.709,0-11.452.106-12.314a14.7,14.7,0,0,1,4.18-8.585,15.179,15.179,0,0,1,4.379-3.132c1.46-.717,1.937-.783,2.707-.385.955.478.942.345.942,7.856v6.674l.318.677a3.706,3.706,0,0,0,5.892.982c2.163-2.15.73-5.494-2.481-5.8-1.314-.133-1.871-.677-1.871-1.818a1.6,1.6,0,0,1,.969-1.486,2.254,2.254,0,0,1,1.353-.146,7.175,7.175,0,0,1,6.489,5.122,8.26,8.26,0,0,1,.066,3.331,7.254,7.254,0,0,1-5.109,5.1,9.921,9.921,0,0,1-3.954.013,7.342,7.342,0,0,1-5.016-4.512c-.279-.77-.305-1.022-.372-6.17l-.066-5.374-1.34,1.327a10.948,10.948,0,0,0-3.012,4.711l-.425,1.261-.04,11.478c-.04,10.669-.027,11.5.186,11.916a2.013,2.013,0,0,0,2.72.743,51.244,51.244,0,0,0,4.153-5.069c2.057-2.641,3.875-4.9,4.047-5.029a4.687,4.687,0,0,1,1.778-.332,12.745,12.745,0,0,0,6.635-2.282,15.114,15.114,0,0,0,3.3-3.476,11,11,0,0,0,.518-10.669,11.146,11.146,0,0,0-2.548-3.384,12.665,12.665,0,0,0-7.723-3.45,1.79,1.79,0,0,1-1.7-1.247,1.686,1.686,0,0,1,.584-1.818c.411-.345.451-.345,1.818-.279A13.9,13.9,0,0,1,223.245,562.745Z" transform="translate(0 0)" fill="#fc7941"/>
          <g id="Group_5149" data-name="Group 5149" transform="translate(237.536 575.7)">
            <path id="Path_2" data-name="Path 2" d="M465.672,663.511a1.7,1.7,0,0,1,.969,1.672,1.858,1.858,0,0,1-3.715,0A1.839,1.839,0,0,1,465.672,663.511Z" transform="translate(-462.925 -663.29)" fill="#3035c2"/>
            <path id="Path_3" data-name="Path 3" d="M893.559,663.621a1.664,1.664,0,0,1,1,1.619,1.737,1.737,0,0,1-1.911,1.831,1.621,1.621,0,0,1-1.818-1.818,1.546,1.546,0,0,1,.942-1.645A1.767,1.767,0,0,1,893.559,663.621Z" transform="translate(-834.045 -663.36)" fill="#3035c2"/>
            <path id="Path_4" data-name="Path 4" d="M1044.232,702.636a5.162,5.162,0,0,1,3.7,2.826c.61,1.234.73,2.229.73,6.011,0,3.317-.013,3.5-.266,3.755a2.25,2.25,0,0,1-2.694-.451c-.159-.226-.212-1.008-.239-3.6l-.053-3.317-.385-.769a3.062,3.062,0,0,0-5.467.066l-.385.7-.066,3.251c-.08,3.636-.12,3.822-1,4.193a2.388,2.388,0,0,1-1.9-.026l-.292-.2v-5.958c0-5.228.026-5.971.212-6.157a2.634,2.634,0,0,1,2.043-.013,1.662,1.662,0,0,1,.8,1.181c0,.146.172.08.624-.265A5.36,5.36,0,0,1,1044.232,702.636Z" transform="translate(-959.891 -697.32)" fill="#3035c2"/>
            <path id="Path_5" data-name="Path 5" d="M466.942,703.5a1.987,1.987,0,0,1,.823.544l.345.411V715.84l-.332.212a2.505,2.505,0,0,1-2.163-.172c-.69-.5-.69-.5-.69-6.422,0-5.679.013-5.812.531-6A3,3,0,0,1,466.942,703.5Z" transform="translate(-464.66 -698.063)" fill="#3035c2"/>
            <path id="Path_6" data-name="Path 6" d="M895.048,703.517a1.841,1.841,0,0,1,.756.61l.305.451v11.239l-.332.212a1.808,1.808,0,0,1-1.154.159,1.394,1.394,0,0,1-1.261-.544l-.438-.491.027-5.732.04-5.732.332-.172A2.4,2.4,0,0,1,895.048,703.517Z" transform="translate(-835.867 -698.041)" fill="#3035c2"/>
            <path id="Path_7" data-name="Path 7" d="M511.031,664.56c.226.2.239.65.239,8.811v8.6l-.292.2a2.411,2.411,0,0,1-1.791.066,1.65,1.65,0,0,1-1.048-1.075l-.08-.4-.358.4c-1.247,1.353-3.344,1.8-5.653,1.221a5.887,5.887,0,0,1-4.339-3.927,10.348,10.348,0,0,1,0-5.016,5.988,5.988,0,0,1,6-4.06,5.674,5.674,0,0,1,4.06,1.5l.318.385v-5.838l.358-.425c.438-.531.717-.65,1.619-.65A1.373,1.373,0,0,1,511.031,664.56Zm-8.081,7.975a3.3,3.3,0,0,0-2.335,3.4,3.393,3.393,0,0,0,3.556,3.662,3.463,3.463,0,0,0,3.636-3.583,3.381,3.381,0,0,0-.73-2.3A3.791,3.791,0,0,0,502.95,672.534Z" transform="translate(-492.825 -664.205)" fill="#3035c2"/>
            <path id="Path_8" data-name="Path 8" d="M777.26,664.524c.8.372.849.637.849,3.782v2.8l.464-.411a5.928,5.928,0,0,1,3.861-1.34c3.928,0,6.422,2.548,6.422,6.568a6.2,6.2,0,0,1-4.193,6.316,5.784,5.784,0,0,1-2.176.305c-1.831.013-2.68-.252-3.662-1.154-.61-.557-.717-.61-.717-.371a1.6,1.6,0,0,1-.451.77c-.4.438-.517.491-1.247.544a1.807,1.807,0,0,1-1.154-.159l-.332-.212V664.723l.292-.2A2.651,2.651,0,0,1,777.26,664.524Zm3.689,7.988a3.534,3.534,0,0,0-2.4,3.808,3.426,3.426,0,0,0,3.609,3.251,3.466,3.466,0,0,0,3.6-3.132,4.239,4.239,0,0,0-.65-2.667A3.662,3.662,0,0,0,780.949,672.512Z" transform="translate(-733.525 -664.184)" fill="#3035c2"/>
            <path id="Path_9" data-name="Path 9" d="M619.116,697.083a6.869,6.869,0,0,1,1.579,1.128,9.05,9.05,0,0,1,1.858,2.879c.212.876.239.849-4.339,2.959-2.362,1.075-4.313,1.977-4.339,2s.133.265.385.517c1.354,1.407,3.981,1.008,5.772-.862.942-.982,1.552-1.141,2.627-.677.836.358.982.677.624,1.367a8.79,8.79,0,0,1-5.374,3.888,7.759,7.759,0,0,1-3.622-.04,7.57,7.57,0,0,1-4.8-6.223,6.329,6.329,0,0,1,3.782-6.595,6.889,6.889,0,0,1,3.742-.823A4.009,4.009,0,0,1,619.116,697.083Zm-3.622,2.588a5.111,5.111,0,0,0-2.07,1.247,3.284,3.284,0,0,0-.73,2.1l.04.544,2.973-1.38c1.632-.756,3-1.406,3.039-1.446.133-.119-.557-.756-1.1-1.008A2.91,2.91,0,0,0,615.493,699.67Z" transform="translate(-589.976 -692.177)" fill="#3035c2"/>
            <path id="Path_10" data-name="Path 10" d="M934.1,697.083a7.118,7.118,0,0,1,1.579,1.141c1.261,1.234,2.229,3.2,1.858,3.742-.066.093-2.03,1.035-4.352,2.11s-4.273,1.964-4.3,1.99.133.265.385.517c1.354,1.407,3.981,1.009,5.772-.862.942-.982,1.553-1.141,2.641-.663.624.265.916.663.77,1.062a8.168,8.168,0,0,1-1.844,2.3,11.078,11.078,0,0,1-1.831,1.154c-3.437,1.7-6.648,1.075-8.691-1.7-2.335-3.145-2.189-6.834.345-9.156a7.636,7.636,0,0,1,5.586-2.1A4.005,4.005,0,0,1,934.1,697.083Zm-3.729,2.654c-1.765.61-2.8,1.9-2.667,3.344l.04.478,2.972-1.367c1.632-.756,3-1.393,3.039-1.433.133-.133-.557-.77-1.1-1.022A2.945,2.945,0,0,0,930.372,699.737Z" transform="translate(-863.189 -692.191)" fill="#3035c2"/>
          </g>
        </g>
      </g>
    </g>
  </g>
</svg>
