<svg id="apple-seeklogo.com" xmlns="http://www.w3.org/2000/svg" width="14.955" height="18.366" viewBox="0 0 14.955 18.366">
  <path id="Path_26" data-name="Path 26" d="M12.49,9.757a4.059,4.059,0,0,0,2.465,3.716,10.052,10.052,0,0,1-1.271,2.612c-.765,1.119-1.56,2.234-2.812,2.257-1.23.023-1.625-.729-3.031-.729s-1.845.706-3.009.752c-1.208.046-2.128-1.21-2.9-2.325C.355,13.76-.85,9.6.768,6.787a4.5,4.5,0,0,1,3.8-2.3c1.186-.023,2.306.8,3.031.8s2.085-.987,3.516-.842a4.29,4.29,0,0,1,3.359,1.822A4.154,4.154,0,0,0,12.49,9.757M10.178,2.932A4.045,4.045,0,0,0,11.134,0,4.117,4.117,0,0,0,8.428,1.392a3.844,3.844,0,0,0-.974,2.841,3.406,3.406,0,0,0,2.724-1.3" transform="translate(0)"/>
</svg>
