<svg id="facebook-logo-2019" xmlns="http://www.w3.org/2000/svg" width="17.949" height="17.949" viewBox="0 0 17.949 17.949">
  <path id="Path_24" data-name="Path 24" d="M17.949,8.975A8.975,8.975,0,1,0,7.572,17.84V11.569H5.294V8.975H7.572V7a3.167,3.167,0,0,1,3.39-3.492,13.8,13.8,0,0,1,2.009.175V5.89H11.839a1.3,1.3,0,0,0-1.463,1.4V8.975h2.489l-.4,2.594H10.377V17.84A8.977,8.977,0,0,0,17.949,8.975Z" fill="#3876ea"/>
  <path id="Path_25" data-name="Path 25" d="M309.174,208.063l.4-2.594h-2.489v-1.683a1.3,1.3,0,0,1,1.462-1.4h1.132v-2.209a13.8,13.8,0,0,0-2.009-.175,3.167,3.167,0,0,0-3.39,3.492v1.977H302v2.594h2.279v6.271a9.071,9.071,0,0,0,2.8,0v-6.271Z" transform="translate(-296.706 -196.494)" fill="#fff"/>
</svg>
